# xmcd
#
# Track frame offsets:
#	150
#	1891
#	22773
#	39762
#	53860
#	68379
#	95112
#	111108
#	124212
#	142061
#	166115
#	167401
#	180563
#	202665
#	225095
#	235462
#	247806
#	264249
#
# Disc length: 3668 seconds
#
# Revision: 1
# Processed by: cddbd v1.5.2PL0 Copyright (c) Steve Scherf et al.
# Submitted via: audiograbber 1.83.01
#
DISCID=ce0e5212
DTITLE=The Mighty Jeremiahs - The Mighty Jeremiahs
DYEAR=2005
DGENRE=
TTITLE0=Revelator Intro
TTITLE1=John The Revelator
TTITLE2=Judgment Day
TTITLE3=Walk With Me Jesus
TTITLE4=Ain't No Room In This House For Hell
TTITLE5=Amazing Grace
TTITLE6=That's How Strong My Love Is
TTITLE7=Tell The Truth
TTITLE8=Wicked Ways
TTITLE9=Respect Yourself
TTITLE10=Shadrach, Meshach and Abednego
TTITLE11=I Love You...
TTITLE12=Testify
TTITLE13=Ole Cheap Bottle Of Wine
TTITLE14=Brother Can You Say Amen?
TTITLE15=Revelator
TTITLE16=It's Been A Good Day
TTITLE17=Instrumental
EXTD=
EXTT0=
EXTT1=
EXTT2=
EXTT3=
EXTT4=
EXTT5=
EXTT6=
EXTT7=
EXTT8=
EXTT9=
EXTT10=
EXTT11=
EXTT12=
EXTT13=
EXTT14=
EXTT15=
EXTT16=
EXTT17=
PLAYORDER=
